<svg width="15" height="15" fill="none" xmlns="http://www.w3.org/2000/svg"><path d="M10.92 3.36a3.37 3.37 0 0 1-3.38 3.36 3.37 3.37 0 0 1-3.39-3.36A3.37 3.37 0 0 1 7.54 0c1.87 0 3.38 1.5 3.38 3.36Z" fill="#79CFF4"/><path d="M.94 11.32A7.85 7.85 0 0 0 0 14.78h3.51c.05-.78.23-1.47.53-2.07.36-.71.84-1.27 1.45-1.67.6-.4 1.26-.6 1.95-.6.82 0 1.52.2 2.1.62.58.4 1.02.95 1.32 1.65.28.61.44 1.3.47 2.07h3.51a7.97 7.97 0 0 0-.88-3.44 6.62 6.62 0 0 0-2.53-2.73A7.53 7.53 0 0 0 7.42 7.6a7.57 7.57 0 0 0-3.86 1 6.88 6.88 0 0 0-2.62 2.72Z" fill="#494747"/></svg>