<svg width="193" height="16" fill="none" xmlns="http://www.w3.org/2000/svg"><path d="M23 3.52a3.37 3.37 0 0 1-3.38 3.36 3.37 3.37 0 0 1-3.39-3.36A3.37 3.37 0 0 1 19.62.16c1.87 0 3.39 1.5 3.39 3.36ZM158.43 3.36a3.37 3.37 0 0 1-3.39 3.36 3.37 3.37 0 0 1-3.38-3.36A3.37 3.37 0 0 1 155.04 0c1.88 0 3.4 1.5 3.4 3.36Z" fill="#79CFF4"/><path d="m184.64 9.18 4.1 5.76H193l-5.98-8.1 5.05-4.95L189.49 0l-6.15 5.91V.32h-3.4v14.62h3.4v-4.5l1.3-1.26ZM1.15 11.4l-.98 2.62c.26.15.58.3.96.45a10.64 10.64 0 0 0 3.64.75c1.2 0 2.21-.18 3.05-.54.85-.37 1.5-.87 1.95-1.48a3.54 3.54 0 0 0 .28-3.76c-.26-.48-.6-.9-1.04-1.3A9.16 9.16 0 0 0 7.56 7.1 88.88 88.88 0 0 0 4.8 5.46c-.4-.2-.7-.4-.93-.62a1 1 0 0 1-.35-.76c0-.38.17-.68.5-.9.35-.23.79-.34 1.32-.34a6.38 6.38 0 0 1 2.04.37c.33.1.7.23 1.1.4l1.06-2.45A8.48 8.48 0 0 0 7.54.34 8.31 8.31 0 0 0 5.29.02a6.8 6.8 0 0 0-2.82.54C1.67.9 1.07 1.38.65 2 .23 2.6.01 3.29 0 4.06c0 .59.13 1.13.39 1.61.27.48.63.9 1.06 1.3.45.38.93.74 1.45 1.07a376.38 376.38 0 0 1 2.71 1.63c.4.22.71.43.96.65.26.21.39.44.39.69 0 .25-.1.49-.26.7-.16.2-.42.36-.76.48a3.9 3.9 0 0 1-1.26.17c-.38 0-.79-.05-1.23-.15a10.38 10.38 0 0 1-2.3-.82ZM13.02 11.48a7.85 7.85 0 0 0-.94 3.46h3.52c.05-.78.22-1.47.52-2.06.36-.72.85-1.28 1.46-1.68.6-.4 1.25-.6 1.95-.6.82 0 1.52.2 2.1.62.57.4 1.02.95 1.32 1.66.27.6.43 1.3.47 2.06h3.5a7.96 7.96 0 0 0-.87-3.44 6.62 6.62 0 0 0-2.54-2.73 7.53 7.53 0 0 0-4-1.01 7.57 7.57 0 0 0-3.86 1.01 6.88 6.88 0 0 0-2.63 2.7ZM40.22 1.12 39.2 3.44a16.93 16.93 0 0 0-2.1-.56 7.01 7.01 0 0 0-1.02-.06c-.66 0-1.3.2-1.89.6a4.2 4.2 0 0 0-1.4 1.67 5.87 5.87 0 0 0-.52 2.58 5.35 5.35 0 0 0 1.08 3.44 3.37 3.37 0 0 0 2.73 1.33 6.56 6.56 0 0 0 3.01-.72l1.28 2.51c-.38.2-.82.38-1.32.54-.5.14-1 .25-1.52.32a8.55 8.55 0 0 1-4.55-.43 6.56 6.56 0 0 1-2.32-1.57 7.22 7.22 0 0 1-1.43-2.4 9.07 9.07 0 0 1-.47-3c0-1.11.17-2.14.52-3.07A6.9 6.9 0 0 1 33.14.6 7.66 7.66 0 0 1 37.4.17c.5.07.98.19 1.47.35.51.15.96.35 1.35.6ZM42.84 14.94h3.38V.32h-3.38v14.62Z" fill="#494747"/><path fill-rule="evenodd" clip-rule="evenodd" d="M54.31.32h3.16l5.62 14.45-3.34.38-1.2-3.37h-5.34l-1.15 3.16h-3.38L54.3.32Zm3.25 8.8-1.73-4.54-1.65 4.53h3.38Z" fill="#494747"/><path d="m75.67 14.94-.4-2.62h-6.39v-12H65.5v14.62h10.17ZM86.7 14.94h-3.38V.32h3.25l5.24 7.42 1.02 1.42-.02-8.84h3.38v14.62h-3.25l-5.4-7.55-.84-1.16v8.7ZM100.2 14.94h10.57l-.44-2.62h-6.76V8.9h5.1l-.42-2.64h-4.68v-3.3h6.33L109.5.33h-9.3v14.62ZM124.11.32l.41 2.65h-4.87v11.97h-3.38V2.97h-4.42V.32h12.26ZM141.52 14.94 145.83.32h-3.38l-2.47 10.36L137.34.32h-3.38l-2.5 10.36-2.7-10.57-3.36.38 4.42 14.45h3.19l2.62-9.91 2.7 9.9h3.2Z" fill="#494747"/><path fill-rule="evenodd" clip-rule="evenodd" d="M164.94.32h5.42c1.1 0 2.1.17 2.99.52.9.33 1.61.84 2.15 1.55.54.68.82 1.58.82 2.68a4.23 4.23 0 0 1-2.23 3.85l3.42 6.02h-3.81l-2.73-5.07a10.85 10.85 0 0 1-1.32 0h-1.33v5.07h-3.38V.32Zm5.31 2.71h-1.93v4.15h2c.47 0 .9-.08 1.25-.24.38-.15.68-.38.9-.68.2-.3.32-.68.32-1.12 0-.49-.1-.9-.3-1.2-.2-.32-.5-.55-.87-.7a3.73 3.73 0 0 0-1.37-.2Z" fill="#494747"/><path d="M147.27 14.94c.07-1.3.38-2.45.94-3.46a6.88 6.88 0 0 1 2.62-2.71c1.12-.66 2.4-1 3.86-1.01 1.57 0 2.91.34 4 1.01a6.6 6.6 0 0 1 2.54 2.73c.55 1.03.84 2.18.89 3.44h-3.52a5.62 5.62 0 0 0-.46-2.06 3.8 3.8 0 0 0-1.33-1.66 3.5 3.5 0 0 0-2.1-.62c-.7 0-1.34.2-1.95.6-.6.4-1.09.96-1.45 1.68-.3.59-.47 1.28-.53 2.06h-3.5Z" fill="#494747"/></svg>