<!--Icons: notification, news, message, arrowDown-->

<svg xmlns="http://www.w3.org/2000/svg"><symbol id="sprite"><symbol id="notification" width="24" height="24" viewBox="0 0 24 24" fill="none"><path d="M18.648 13.7018L18.3 13.4275C18.2065 13.3541 18.1309 13.261 18.079 13.1551C18.0271 13.0493 18.0001 12.9334 18 12.8159V9.64863C17.9995 8.28749 17.5172 6.96867 16.6353 5.91713C15.7534 4.86558 14.5265 4.14645 13.164 3.88239C13.0976 3.62986 12.9474 3.40614 12.737 3.24641C12.5267 3.08668 12.2681 3 12.002 3C11.7359 3 11.4773 3.08668 11.267 3.24641C11.0566 3.40614 10.9064 3.62986 10.84 3.88239C9.47672 4.14565 8.24894 4.86444 7.36624 5.91606C6.48354 6.96768 6.00065 8.28694 6 9.64863V12.8159C5.99993 12.9334 5.97293 13.0493 5.921 13.1551C5.86908 13.261 5.79355 13.3541 5.7 13.4275L5.352 13.7018C4.93171 14.0311 4.59209 14.4485 4.35812 14.9234C4.12415 15.3983 4.00177 15.9185 4 16.4458V17.0965C4 17.5124 4.16857 17.9112 4.46863 18.2052C4.76869 18.4993 5.17565 18.6645 5.6 18.6645H8.904C9.08432 19.3339 9.48561 19.926 10.0453 20.3484C10.605 20.7709 11.2915 21 11.998 21C12.7045 21 13.391 20.7709 13.9507 20.3484C14.5104 19.926 14.9117 19.3339 15.092 18.6645H18.4C18.8243 18.6645 19.2313 18.4993 19.5314 18.2052C19.8314 17.9112 20 17.5124 20 17.0965V16.4536C19.9994 15.925 19.8776 15.4033 19.6436 14.9269C19.4096 14.4506 19.0693 14.032 18.648 13.7018ZM12 19.4485C11.7208 19.4468 11.4469 19.3736 11.2055 19.2361C10.9641 19.0985 10.7636 18.9015 10.624 18.6645H13.38C13.2401 18.9021 13.039 19.0995 12.7968 19.237C12.5546 19.3746 12.2799 19.4475 12 19.4485ZM18.4 17.0965H5.6V16.4536C5.60043 16.1599 5.66823 15.87 5.7984 15.6054C5.92856 15.3407 6.11776 15.1082 6.352 14.9249L6.7 14.6505C6.98065 14.4303 7.20723 14.1511 7.36301 13.8336C7.51878 13.516 7.59978 13.1683 7.6 12.8159V9.64863C7.6 8.50503 8.06357 7.40827 8.88873 6.59962C9.71389 5.79098 10.833 5.33669 12 5.33669C13.167 5.33669 14.2861 5.79098 15.1113 6.59962C15.9364 7.40827 16.4 8.50503 16.4 9.64863V12.8159C16.3996 13.1689 16.4803 13.5175 16.6361 13.8357C16.7919 14.154 17.0188 14.4338 17.3 14.6544L17.648 14.9288C17.8817 15.1117 18.0706 15.3436 18.2007 15.6075C18.3309 15.8714 18.399 16.1606 18.4 16.4536V17.0965Z" fill="currentColor"></path></symbol></symbol><symbol id="notification" viewBox="0 0 24 24"><path d="M18.648 13.7018L18.3 13.4275C18.2065 13.3541 18.1309 13.261 18.079 13.1551C18.0271 13.0493 18.0001 12.9334 18 12.8159V9.64863C17.9995 8.28749 17.5172 6.96867 16.6353 5.91713C15.7534 4.86558 14.5265 4.14645 13.164 3.88239C13.0976 3.62986 12.9474 3.40614 12.737 3.24641C12.5267 3.08668 12.2681 3 12.002 3C11.7359 3 11.4773 3.08668 11.267 3.24641C11.0566 3.40614 10.9064 3.62986 10.84 3.88239C9.47672 4.14565 8.24894 4.86444 7.36624 5.91606C6.48354 6.96768 6.00065 8.28694 6 9.64863V12.8159C5.99993 12.9334 5.97293 13.0493 5.921 13.1551C5.86908 13.261 5.79355 13.3541 5.7 13.4275L5.352 13.7018C4.93171 14.0311 4.59209 14.4485 4.35812 14.9234C4.12415 15.3983 4.00177 15.9185 4 16.4458V17.0965C4 17.5124 4.16857 17.9112 4.46863 18.2052C4.76869 18.4993 5.17565 18.6645 5.6 18.6645H8.904C9.08432 19.3339 9.48561 19.926 10.0453 20.3484C10.605 20.7709 11.2915 21 11.998 21C12.7045 21 13.391 20.7709 13.9507 20.3484C14.5104 19.926 14.9117 19.3339 15.092 18.6645H18.4C18.8243 18.6645 19.2313 18.4993 19.5314 18.2052C19.8314 17.9112 20 17.5124 20 17.0965V16.4536C19.9994 15.925 19.8776 15.4033 19.6436 14.9269C19.4096 14.4506 19.0693 14.032 18.648 13.7018ZM12 19.4485C11.7208 19.4468 11.4469 19.3736 11.2055 19.2361C10.9641 19.0985 10.7636 18.9015 10.624 18.6645H13.38C13.2401 18.9021 13.039 19.0995 12.7968 19.237C12.5546 19.3746 12.2799 19.4475 12 19.4485ZM18.4 17.0965H5.6V16.4536C5.60043 16.1599 5.66823 15.87 5.7984 15.6054C5.92856 15.3407 6.11776 15.1082 6.352 14.9249L6.7 14.6505C6.98065 14.4303 7.20723 14.1511 7.36301 13.8336C7.51878 13.516 7.59978 13.1683 7.6 12.8159V9.64863C7.6 8.50503 8.06357 7.40827 8.88873 6.59962C9.71389 5.79098 10.833 5.33669 12 5.33669C13.167 5.33669 14.2861 5.79098 15.1113 6.59962C15.9364 7.40827 16.4 8.50503 16.4 9.64863V12.8159C16.3996 13.1689 16.4803 13.5175 16.6361 13.8357C16.7919 14.154 17.0188 14.4338 17.3 14.6544L17.648 14.9288C17.8817 15.1117 18.0706 15.3436 18.2007 15.6075C18.3309 15.8714 18.399 16.1606 18.4 16.4536V17.0965Z" fill="currentColor"></path></symbol><symbol id="news" viewBox="0 0 24 24"><g clip-path="url(#clip0_3_315)"><path d="M6.90909 4V5.45455H4V17.8182C4 18.3968 4.22987 18.9518 4.63904 19.361C5.04821 19.7701 5.60316 20 6.18182 20H17.2655C17.9901 19.9981 18.6845 19.7094 19.1969 19.1969C19.7094 18.6845 19.9981 17.9901 20 17.2655V4H6.90909ZM5.45455 17.8182V6.90909H6.90909V17.8182C6.90909 18.0111 6.83247 18.1961 6.69608 18.3324C6.55969 18.4688 6.3747 18.5455 6.18182 18.5455C5.98893 18.5455 5.80395 18.4688 5.66756 18.3324C5.53117 18.1961 5.45455 18.0111 5.45455 17.8182ZM18.5455 17.2655C18.5455 17.4335 18.5123 17.6 18.448 17.7553C18.3837 17.9106 18.2894 18.0517 18.1706 18.1706C18.0517 18.2894 17.9106 18.3837 17.7553 18.448C17.6 18.5123 17.4335 18.5455 17.2655 18.5455H8.23273C8.3174 18.3122 8.36167 18.0663 8.36364 17.8182V5.45455H18.5455V17.2655Z" fill="currentColor"></path><path d="M17 7H11V8H17V7Z" fill="currentColor"></path><path d="M17 10H10V11H17V10Z" fill="currentColor"></path><path d="M17 13H10V14H17V13Z" fill="currentColor"></path><path d="M17 16H10V17H17V16Z" fill="currentColor"></path></g><defs><clipPath id="clip0_3_315"><rect width="24" height="24" fill="currentColor"></rect></clipPath></defs></symbol><symbol id="message" viewBox="0 0 24 24"><g clip-path="url(#clip0_3_285)"><g clip-path="url(#clip1_3_285)"><path d="M3 22C2.90162 22.0025 2.80401 21.982 2.715 21.94C2.57804 21.8837 2.46079 21.7882 2.37804 21.6654C2.29529 21.5426 2.25074 21.3981 2.25 21.25V7.585C2.26071 7.10334 2.36622 6.62851 2.5605 6.18764C2.75477 5.74677 3.03401 5.3485 3.38226 5.01557C3.7305 4.68265 4.14093 4.42161 4.59009 4.24735C5.03925 4.0731 5.51835 3.98905 6 4H18C18.4817 3.98905 18.9607 4.0731 19.4099 4.24735C19.8591 4.42161 20.2695 4.68265 20.6177 5.01557C20.966 5.3485 21.2452 5.74677 21.4395 6.18764C21.6338 6.62851 21.7393 7.10334 21.75 7.585V14.665C21.7393 15.1467 21.6338 15.6215 21.4395 16.0624C21.2452 16.5032 20.966 16.9015 20.6177 17.2344C20.2695 17.5674 19.8591 17.8284 19.4099 18.0027C18.9607 18.1769 18.4817 18.261 18 18.25H7.0575L3.5325 21.7825C3.46242 21.852 3.37931 21.907 3.28793 21.9443C3.19655 21.9817 3.0987 22.0006 3 22ZM6 5.5C5.42556 5.4797 4.86645 5.68762 4.44484 6.07831C4.02324 6.46899 3.77343 7.01069 3.75 7.585V19.4425L6.2175 16.9675C6.28758 16.898 6.37069 16.843 6.46207 16.8057C6.55345 16.7683 6.6513 16.7494 6.75 16.75H18C18.5744 16.7703 19.1336 16.5624 19.5552 16.1717C19.9768 15.781 20.2266 15.2393 20.25 14.665V7.585C20.2266 7.01069 19.9768 6.46899 19.5552 6.07831C19.1336 5.68762 18.5744 5.4797 18 5.5H6Z" fill="currentColor"></path><path d="M12 12.25C12.6213 12.25 13.125 11.7463 13.125 11.125C13.125 10.5037 12.6213 10 12 10C11.3787 10 10.875 10.5037 10.875 11.125C10.875 11.7463 11.3787 12.25 12 12.25Z" fill="currentColor"></path><path d="M16.125 12.25C16.7463 12.25 17.25 11.7463 17.25 11.125C17.25 10.5037 16.7463 10 16.125 10C15.5037 10 15 10.5037 15 11.125C15 11.7463 15.5037 12.25 16.125 12.25Z" fill="currentColor"></path><path d="M7.875 12.25C8.49632 12.25 9 11.7463 9 11.125C9 10.5037 8.49632 10 7.875 10C7.25368 10 6.75 10.5037 6.75 11.125C6.75 11.7463 7.25368 12.25 7.875 12.25Z" fill="currentColor"></path></g></g><defs><clipPath id="clip0_3_285"><rect width="24" height="24" fill="currentColor"></rect></clipPath><clipPath id="clip1_3_285"><rect width="24" height="24" fill="currentColor" transform="translate(0 1)"></rect></clipPath></defs></symbol><symbol id="arrowDown" viewBox="0 0 24 24"><path d="M6 9L12 15L18 9" stroke="currentColor" fill="none" stroke-width="2" stroke-linecap="round" stroke-linejoin="round"></path></symbol></svg>